<svg width="22" height="26" viewBox="0 0 22 26" fill="none" xmlns="http://www.w3.org/2000/svg">
<path d="M5.23494 25.5133C4.72232 25.1722 4.268 24.7508 3.88944 24.2653C3.47302 23.7641 3.08719 23.2383 2.73406 22.6906C1.90538 21.4766 1.2555 20.1498 0.804375 18.7508C0.262437 17.1258 0 15.5683 0 14.0448C0 12.3435 0.368063 10.8582 1.08794 9.61021C1.62157 8.63475 2.40615 7.8196 3.3605 7.24908C4.28537 6.67462 5.34807 6.36025 6.43662 6.33908C6.81769 6.33908 7.228 6.39433 7.6635 6.49996C7.97631 6.58852 8.35737 6.72827 8.82294 6.90215C9.41525 7.13046 9.74106 7.27021 9.85156 7.30433C10.1985 7.43108 10.4902 7.48633 10.7193 7.48633C10.8932 7.48633 11.1386 7.43108 11.4172 7.34658C11.5741 7.29133 11.8698 7.19383 12.2931 7.01265C12.7124 6.8599 13.0422 6.72908 13.3047 6.63158C13.7069 6.51296 14.0961 6.40327 14.443 6.34802C14.8543 6.28318 15.2717 6.266 15.6869 6.29683C16.4065 6.34386 17.1153 6.49635 17.7905 6.7494C18.8947 7.19383 19.7876 7.88771 20.4522 8.87408C20.1713 9.04722 19.9077 9.24693 19.6649 9.47046C19.1365 9.93893 18.6864 10.4889 18.3316 11.0995C17.8679 11.934 17.6275 12.8741 17.6337 13.8287C17.6507 15.0011 17.9514 16.0338 18.5437 16.9268C18.9791 17.5886 19.5451 18.1545 20.2069 18.59C20.5457 18.8183 20.8374 18.9751 21.1169 19.0807C20.9861 19.487 20.8463 19.8802 20.6814 20.2702C20.3073 21.1448 19.8539 21.9833 19.3269 22.7751C18.8573 23.4568 18.4892 23.9646 18.2097 24.3026C17.7742 24.8186 17.355 25.2126 16.9317 25.4873C16.4661 25.796 15.9161 25.961 15.3571 25.961C14.9785 25.9755 14.6 25.9297 14.2358 25.8253C13.923 25.7196 13.6134 25.6051 13.3087 25.4743C12.992 25.3288 12.6654 25.2058 12.3313 25.1062C11.5056 24.8941 10.6398 24.8927 9.81337 25.1021C9.47456 25.1996 9.14875 25.3134 8.827 25.4531C8.37444 25.6433 8.07381 25.7708 7.89994 25.8253C7.553 25.9268 7.19306 25.9902 6.82906 26.0113C6.266 26.0113 5.74112 25.8505 5.22112 25.5246L5.23494 25.5133ZM12.6612 5.51358C11.9251 5.88165 11.2222 6.03846 10.5243 5.98727C10.4146 5.28446 10.5243 4.5654 10.816 3.77808C11.0643 3.11107 11.4313 2.49448 11.8991 1.95808C12.3931 1.39341 12.9925 0.930576 13.6638 0.59552C14.3788 0.227458 15.0605 0.0283955 15.7121 -0.000854492C15.7966 0.735271 15.7121 1.45921 15.4416 2.24165C15.1912 2.93331 14.8249 3.57734 14.3585 4.14615C13.8824 4.71159 13.2982 5.17622 12.6401 5.51277L12.6612 5.51358Z" fill="black"/>
</svg>
